<?xml version="1.0" standalone="no"?>
<!DOCTYPE svg PUBLIC "-//W3C//DTD SVG 20010904//EN"
 "http://www.w3.org/TR/2001/REC-SVG-20010904/DTD/svg10.dtd">
<svg version="1.0" xmlns="http://www.w3.org/2000/svg"
 width="900.000000pt" height="900.000000pt" viewBox="0 0 900.000000 900.000000"
 preserveAspectRatio="xMidYMid meet">

<g transform="translate(0.000000,900.000000) scale(0.100000,-0.100000)"
fill="#000000" stroke="none">
<path d="M4180 8145 c-849 -85 -1601 -435 -2204 -1024 -275 -270 -485 -547
-674 -892 l-42 -76 238 -185 c804 -625 953 -740 956 -737 1 2 13 33 25 69 40
113 147 321 229 445 233 350 525 606 897 786 222 107 431 169 678 199 94 11
375 14 460 5 438 -51 793 -199 1109 -465 l93 -79 510 510 510 510 -65 60
c-155 142 -401 319 -612 438 -348 198 -770 344 -1178 407 -282 44 -664 56
-930 29z"/>
<path d="M4540 4485 l0 -705 989 0 c611 0 992 -4 996 -9 8 -14 -39 -198 -77
-301 -110 -303 -312 -577 -568 -775 -41 -31 -75 -58 -75 -60 0 -1 32 -27 70
-57 39 -30 243 -189 455 -353 479 -372 591 -459 608 -469 17 -10 91 60 226
214 290 329 503 700 652 1135 142 411 209 833 209 1315 0 280 -15 467 -56 708
l-11 62 -1709 0 -1709 0 0 -705z"/>
</g>
</svg>
