<?xml version="1.0" standalone="no"?>
<!DOCTYPE svg PUBLIC "-//W3C//DTD SVG 20010904//EN"
 "http://www.w3.org/TR/2001/REC-SVG-20010904/DTD/svg10.dtd">
<svg version="1.0" xmlns="http://www.w3.org/2000/svg"
 width="512.000000pt" height="512.000000pt" viewBox="0 0 512.000000 512.000000"
 preserveAspectRatio="xMidYMid meet">

<g transform="translate(0.000000,512.000000) scale(0.100000,-0.100000)"
fill="#000000" stroke="none">
<path d="M673 3431 c-82 -40 -146 -77 -152 -89 -6 -11 -11 -36 -11 -54 0 -30
17 -50 163 -194 89 -88 185 -179 214 -203 107 -87 312 -215 467 -291 148 -72
377 -163 447 -177 16 -3 29 -9 29 -12 0 -4 -35 -17 -77 -30 -191 -56 -452
-173 -637 -285 -168 -103 -288 -198 -453 -360 -133 -129 -153 -153 -153 -180
0 -18 7 -42 16 -54 23 -34 284 -185 319 -185 22 0 36 9 60 39 228 293 636 541
1099 669 66 18 124 30 127 27 4 -4 32 -85 64 -180 44 -133 62 -176 80 -188 36
-23 692 -15 780 9 183 52 345 176 438 337 l29 50 466 1 c336 0 476 4 500 13
46 16 97 69 110 114 7 24 12 112 12 221 0 194 -7 230 -53 279 -49 53 -41 52
-554 52 l-478 0 -38 65 c-80 137 -213 248 -367 307 l-85 33 -378 3 c-271 2
-382 0 -392 -8 -8 -6 -42 -96 -76 -198 -34 -103 -63 -190 -65 -194 -12 -20
-367 97 -540 177 -264 123 -533 325 -666 502 -54 71 -67 70 -245 -16z m180
-227 l-58 -44 -52 57 c-29 31 -53 59 -53 62 0 4 28 21 63 38 l62 32 48 -51 48
-50 -58 -44z m213 -96 c30 -24 54 -45 54 -48 -1 -3 -20 -27 -44 -54 l-44 -50
-55 43 c-86 66 -86 64 -25 110 29 22 54 40 56 40 2 1 28 -18 58 -41z m1927
-83 c86 -18 166 -54 234 -106 51 -38 133 -131 133 -150 0 -5 -33 -9 -72 -9
-66 0 -83 -5 -183 -50 -60 -28 -115 -57 -121 -65 -8 -11 -61 -14 -280 -17
-264 -3 -270 -3 -311 -27 -64 -37 -96 -90 -101 -165 -4 -78 24 -138 86 -181
l44 -30 275 -3 c258 -3 277 -4 292 -22 9 -11 67 -42 130 -70 98 -43 122 -50
177 -50 63 0 64 0 53 -22 -43 -79 -176 -181 -287 -220 -65 -22 -79 -23 -386
-23 l-319 0 -102 305 -102 305 99 295 c54 162 100 301 103 308 7 19 546 17
638 -3z m-1706 -75 c24 -14 43 -29 43 -35 0 -16 -48 -115 -56 -115 -10 0 -124
71 -124 77 0 10 83 104 89 101 3 -2 25 -14 48 -28z m218 -117 c19 -9 35 -21
35 -26 0 -10 -31 -120 -35 -125 -2 -2 -26 8 -53 22 l-51 26 26 60 c15 33 30
60 34 60 5 0 24 -8 44 -17z m242 -107 c2 -2 -1 -33 -7 -69 l-12 -65 -44 15
c-49 17 -51 22 -28 99 l15 54 37 -15 c20 -9 38 -17 39 -19z m199 -60 c27 -8
68 -19 91 -25 l42 -11 -21 -63 c-12 -34 -22 -63 -23 -64 -2 -4 -160 39 -167
46 -9 8 11 131 21 131 4 0 30 -6 57 -14z m2505 -46 c18 -10 19 -23 19 -193 0
-129 -4 -187 -12 -195 -9 -9 -158 -12 -608 -12 l-595 0 -72 32 -73 32 0 140 0
141 73 32 72 32 588 0 c388 1 595 -3 608 -9z m-1481 -195 l0 -65 -252 0 c-139
0 -258 4 -264 8 -13 8 -34 46 -34 60 0 5 9 21 21 36 l20 26 255 0 254 0 0 -65z
m-903 -171 c16 -47 18 -66 10 -69 -24 -8 -176 -45 -185 -45 -11 0 -35 120 -26
129 4 5 146 45 174 50 3 1 16 -29 27 -65z m-328 -87 c6 -35 11 -67 11 -70 0
-7 -71 -39 -76 -34 -5 4 -44 131 -41 132 7 5 83 34 88 34 4 1 12 -27 18 -62z
m-214 -92 c9 -36 16 -67 14 -69 -9 -8 -69 -36 -77 -36 -10 0 -67 119 -60 125
5 6 92 45 99 45 3 0 14 -29 24 -65z m-220 -109 c15 -35 25 -68 22 -73 -3 -4
-26 -19 -50 -32 l-45 -25 -29 34 c-71 85 -69 76 -21 106 24 14 52 32 63 40 11
7 23 13 26 13 4 1 19 -28 34 -63z m-237 -145 c23 -27 43 -53 44 -59 3 -11 -87
-92 -101 -92 -13 0 -116 81 -116 91 0 10 113 107 126 108 3 1 24 -21 47 -48z
m-218 -207 l62 -45 -43 -47 c-23 -26 -43 -48 -44 -49 0 -1 -33 17 -73 41 l-73
43 47 51 c25 29 49 52 54 52 4 0 36 -20 70 -46z"/>
<path d="M3330 2468 c-24 -26 -26 -56 -4 -86 15 -22 20 -22 224 -22 204 0 209
0 224 22 21 30 20 50 -5 82 l-20 26 -199 0 c-192 0 -200 -1 -220 -22z"/>
</g>
</svg>
