<?xml version="1.0" standalone="no"?>
<!DOCTYPE svg PUBLIC "-//W3C//DTD SVG 20010904//EN"
 "http://www.w3.org/TR/2001/REC-SVG-20010904/DTD/svg10.dtd">
<svg version="1.0" xmlns="http://www.w3.org/2000/svg"
 width="512.000000pt" height="512.000000pt" viewBox="0 0 512.000000 512.000000"
 preserveAspectRatio="xMidYMid meet">

<g transform="translate(0.000000,512.000000) scale(0.100000,-0.100000)"
fill="#000000" stroke="none">
<path d="M2300 4995 c-492 -61 -947 -283 -1295 -630 -370 -370 -598 -865 -640
-1387 l-7 -87 -58 -35 c-116 -72 -207 -201 -236 -335 -20 -95 -20 -698 1 -794
40 -192 205 -359 392 -398 179 -37 334 29 411 176 l27 50 0 570 0 570 -27 50
c-28 54 -96 123 -145 149 -17 8 -51 20 -77 27 l-47 12 6 46 c41 315 87 475
206 713 279 557 811 948 1435 1054 128 21 378 29 509 15 602 -65 1121 -381
1447 -881 157 -240 263 -522 298 -790 23 -178 26 -156 -27 -169 -25 -7 -59
-19 -76 -27 -49 -26 -117 -95 -145 -149 l-27 -50 0 -570 0 -570 27 -50 c28
-54 96 -123 145 -149 17 -8 51 -20 76 -27 l47 -11 0 -152 c0 -168 -12 -235
-58 -320 -39 -72 -127 -158 -200 -195 -101 -51 -163 -61 -387 -61 l-200 0 -29
56 c-36 68 -113 137 -186 166 -52 21 -71 22 -315 22 -250 0 -262 -1 -320 -23
-84 -34 -174 -124 -204 -206 -33 -86 -27 -216 13 -293 36 -71 99 -132 172
-168 l59 -29 280 0 280 0 57 28 c66 32 136 99 169 162 l23 43 240 5 c270 5
308 11 441 76 145 72 261 187 331 331 61 123 67 156 72 387 l4 211 57 36 c119
73 208 199 237 335 20 94 20 698 0 792 -29 134 -120 263 -235 334 l-58 36 -12
122 c-45 463 -214 864 -519 1227 -302 361 -759 631 -1225 725 -231 46 -487 57
-707 30z m-1671 -2331 l31 -26 0 -513 0 -512 -26 -27 c-57 -56 -192 -22 -272
69 -68 78 -72 102 -72 470 0 367 4 392 71 469 82 93 203 125 268 70z m4048 -2
c57 -30 120 -105 138 -165 12 -40 15 -116 15 -372 0 -368 -4 -392 -72 -470
-80 -91 -215 -125 -272 -69 l-26 27 0 512 0 512 28 28 c25 25 32 27 87 22 33
-2 79 -14 102 -25z m-1261 -2106 c28 -28 34 -42 34 -75 0 -53 -22 -97 -60
-116 -42 -21 -447 -22 -489 -1 -41 22 -61 59 -61 112 0 39 5 51 34 80 l34 34
237 0 237 0 34 -34z"/>
<path d="M1715 3840 c-200 -27 -361 -167 -422 -365 -17 -55 -18 -106 -18 -655
0 -588 0 -596 22 -666 60 -189 220 -326 416 -355 l77 -11 0 -142 c0 -168 14
-228 66 -286 73 -80 190 -106 284 -62 31 14 122 96 285 256 l240 236 345 0
c190 0 374 5 410 10 78 12 188 65 252 120 64 55 124 148 151 234 22 70 22 78
22 666 0 549 -1 600 -18 655 -51 166 -173 293 -336 347 l-66 23 -825 1 c-454
1 -852 -2 -885 -6z m1725 -256 c67 -31 106 -68 137 -132 l28 -57 0 -575 c0
-562 0 -576 -21 -620 -30 -65 -69 -107 -128 -138 l-51 -27 -421 -5 -421 -5
-258 -252 c-141 -139 -261 -253 -266 -253 -5 0 -9 95 -9 210 0 291 -2 294
-200 302 -92 4 -123 9 -156 26 -66 34 -101 69 -131 130 l-28 57 0 570 c0 443
3 578 13 607 32 89 112 159 203 177 24 5 409 8 854 8 799 -2 811 -2 855 -23z"/>
<path d="M1928 2970 c-72 -22 -128 -96 -128 -170 0 -81 65 -158 147 -175 66
-13 155 32 188 96 19 36 19 122 0 158 -20 39 -69 78 -113 91 -42 11 -56 11
-94 0z"/>
<path d="M2502 2966 c-49 -17 -98 -70 -112 -121 -35 -125 90 -252 211 -216 97
29 154 126 129 216 -20 73 -98 133 -170 133 -14 0 -40 -5 -58 -12z"/>
<path d="M3087 2966 c-45 -16 -83 -49 -103 -88 -18 -35 -18 -121 1 -157 33
-64 122 -109 188 -96 80 17 147 98 147 176 -1 117 -125 205 -233 165z"/>
</g>
</svg>
